<svg width="134" height="24" viewBox="0 0 134 24" fill="none" xmlns="http://www.w3.org/2000/svg">
<path fill-rule="evenodd" clip-rule="evenodd" d="M24.2696 23H28.7552V11.976H24.2696V23ZM29 8.80158C29 10.5173 28.3872 10.8177 26.5001 10.8177C24.6128 10.8177 24 10.5173 24 8.80158C24 7.23616 24.6128 7 26.5001 7C28.3872 7 29 7.23616 29 8.80158Z" fill="white"/>
<path fill-rule="evenodd" clip-rule="evenodd" d="M35.0832 22H31V11.9981C32.5395 11.5197 34.9271 11 37.2028 11C40.3267 11 42 12.3098 42 16.1153V22H37.9168V16.3648C37.9168 14.8678 37.6937 14.3684 36.3102 14.3684C35.9533 14.3684 35.5518 14.4311 35.0832 14.5141V22Z" fill="white"/>
<path fill-rule="evenodd" clip-rule="evenodd" d="M57 22C55.0801 18.4476 53.5302 16.4947 53.0444 16.1621C53.5533 15.7261 54.9179 14.0846 56.6991 11.3216H51.865C49.9678 14.2092 48.7422 15.8714 48.2333 16.3491C48.6957 16.5984 49.9217 18.4476 52.1655 22H57ZM44 22H48.2333V7H44V22Z" fill="white"/>
<path fill-rule="evenodd" clip-rule="evenodd" d="M64.0356 17.7052C63.6233 17.6244 63.0957 17.6039 62.5459 17.6039C61.6291 17.6039 61.2853 17.7052 61.2853 18.4548C61.2853 19.1841 61.4688 19.3258 62.4773 19.3258C63.0043 19.3258 63.6001 19.2449 64.0356 19.1032V17.7052ZM68 21.1896C66.3273 21.6961 63.9439 22 62.1332 22C58.0771 22 57 21.2909 57 18.5561C57 15.6391 58.7187 15.1732 61.5834 15.1732C62.3398 15.1732 63.2563 15.2743 64.0356 15.416C64.0356 14.3222 63.8064 13.9577 61.6291 13.9577C60.1853 13.9577 58.9022 14.2209 57.8936 14.4642L57.2978 11.5671C58.8104 11.243 60.9418 11 62.7293 11C66.2816 11 68 11.9928 68 15.0515V21.1896Z" fill="white"/>
<path fill-rule="evenodd" clip-rule="evenodd" d="M80 11V11.5348C78.7558 13.6108 76.6001 16.7783 75.2223 18.6614H79.6447V22H69V21.4865C70.6222 19.3249 73.0445 15.6868 73.8001 14.3386H69.4002V11H80Z" fill="white"/>
<path fill-rule="evenodd" clip-rule="evenodd" d="M88.0355 17.7052C87.6231 17.6244 87.0958 17.6039 86.546 17.6039C85.6292 17.6039 85.2855 17.7052 85.2855 18.4548C85.2855 19.1841 85.4686 19.3258 86.4774 19.3258C87.0044 19.3258 87.5999 19.2449 88.0355 19.1032V17.7052ZM92 21.1896C90.3271 21.6961 87.944 22 86.1334 22C82.0774 22 81 21.2909 81 18.5561C81 15.6391 82.7186 15.1732 85.5835 15.1732C86.3397 15.1732 87.2562 15.2743 88.0355 15.416C88.0355 14.3222 87.8066 13.9577 85.6292 13.9577C84.1852 13.9577 82.9024 14.2209 81.8936 14.4642L81.2981 11.5671C82.8104 11.243 84.9417 11 86.7292 11C90.2814 11 92 11.9928 92 15.0515V21.1896Z" fill="white"/>
<path fill-rule="evenodd" clip-rule="evenodd" d="M98.0835 22H94V11.9981C95.5398 11.5197 97.9271 11 100.203 11C103.327 11 105 12.3098 105 16.1153V22H100.917V16.3648C100.917 14.8678 100.694 14.3684 99.3102 14.3684C98.9535 14.3684 98.552 14.4311 98.0835 14.5141V22Z" fill="white"/>
<path fill-rule="evenodd" clip-rule="evenodd" d="M112 19.9068C112 21.6891 111.381 22 109.476 22C107.619 22 107 21.6891 107 19.9068C107 18.2696 107.619 18 109.476 18C111.381 18 112 18.2696 112 19.9068Z" fill="white"/>
<path fill-rule="evenodd" clip-rule="evenodd" d="M114 11.3119H118.159V12.1643C118.545 11.4989 119.159 11 120.841 11C121.182 11 121.568 11.0207 122 11.0622V14.5766C121.523 14.4311 120.818 14.3684 120.227 14.3684C119.113 14.3684 118.159 14.7428 118.159 15.346V22H114V11.3119Z" fill="white"/>
<path fill-rule="evenodd" clip-rule="evenodd" d="M129.931 11H134V21.0019C132.457 21.4804 130.065 22 127.785 22C124.654 22 123 20.69 123 16.8847V11H127.069V16.6352C127.069 18.1325 127.292 18.6314 128.679 18.6314C129.059 18.6314 129.439 18.5691 129.931 18.4856V11Z" fill="white"/>
<path fill-rule="evenodd" clip-rule="evenodd" d="M7.51952 6.80245C8.25444 5.58185 9.69899 4.85317 11.0344 5.2342C11.2692 5.30139 11.346 5.3217 11.6789 5.43993C12.1001 4.25507 13.2961 3.65665 14.3783 4.33371C13.2212 6.13444 14.6831 7.74011 15.8436 8.96663C16.3384 9.48979 16.3481 10.2861 15.8436 10.801C15.4437 11.209 15.0516 11.6093 14.6452 12.0241C14.3937 10.9731 13.569 10.3546 12.8532 9.65724C12.3258 9.14293 11.8007 8.62602 11.2592 8.12552C10.7558 7.66043 10.3224 7.62189 9.95279 7.9763C9.55261 8.36014 9.77283 8.82445 10.3146 9.43459C10.456 9.59374 10.604 9.75677 10.7574 9.92295L16.4772 15.4354C18.5076 17.3921 18.5076 20.5762 16.4772 22.5326C15.4621 23.5107 14.1289 24 12.7951 24C11.4619 24 10.1284 23.5107 9.11325 22.5326C7.63575 21.1089 5.67188 20.3173 3.58236 20.3035L1.81222 20.2941C3.12895 18.382 5.68917 17.6484 7.86219 18.5866C9.02597 19.0892 10.0963 19.7975 11.0236 20.6913C12.0407 21.6709 13.7214 21.6311 14.6839 20.5704C15.5615 19.6035 15.4472 18.1252 14.5044 17.2166L1.10076 4.29882C-0.0792368 3.16162 -0.339718 1.41089 0.46118 0L7.51952 6.80245Z" fill="white"/>
<path fill-rule="evenodd" clip-rule="evenodd" d="M13.5967 18.7274L1.46993 7C0.653839 8.44236 0.91926 10.2327 2.12164 11.3955L11.6498 20.6099C11.9185 20.8701 12.271 21 12.6231 21C12.9756 21 13.328 20.8701 13.5967 20.6099C14.1344 20.0902 14.1344 19.2472 13.5967 18.7274Z" fill="white"/>
</svg>
