<svg width="15" height="14" viewBox="0 0 15 14" fill="none" xmlns="http://www.w3.org/2000/svg">
<path d="M13.1 0.5H1.9C1.123 0.5 0.5 1.14278 0.5 1.94444V12.0556C0.5 12.8572 1.123 13.5 1.9 13.5H13.1C13.877 13.5 14.5 12.8572 14.5 12.0556V1.94444C14.5 1.14278 13.877 0.5 13.1 0.5ZM2.6 4.38889C2.6 3.8366 3.04772 3.38889 3.6 3.38889H5.1C5.65228 3.38889 6.1 3.8366 6.1 4.38889V6.72222C6.1 7.27451 5.65228 7.72222 5.1 7.72222H3.6C3.04772 7.72222 2.6 7.27451 2.6 6.72222V4.38889ZM12.4 9.88889C12.4 10.2878 12.0766 10.6111 11.6778 10.6111H3.32222C2.92335 10.6111 2.6 10.2878 2.6 9.88889C2.6 9.49002 2.92335 9.16667 3.32222 9.16667H11.6778C12.0766 9.16667 12.4 9.49002 12.4 9.88889ZM12.4 7C12.4 7.39887 12.0766 7.72222 11.6778 7.72222H8.22222C7.82335 7.72222 7.5 7.39887 7.5 7C7.5 6.60113 7.82335 6.27778 8.22222 6.27778H11.6778C12.0766 6.27778 12.4 6.60113 12.4 7ZM12.4 4.11111C12.4 4.50998 12.0766 4.83333 11.6778 4.83333H8.22222C7.82335 4.83333 7.5 4.50998 7.5 4.11111C7.5 3.71224 7.82335 3.38889 8.22222 3.38889H11.6778C12.0766 3.38889 12.4 3.71224 12.4 4.11111Z" fill="white"/>
</svg>
