<svg width="15" height="12" viewBox="0 0 15 12" fill="none" xmlns="http://www.w3.org/2000/svg">
<path d="M11.1833 4.67262V1.57517C11.1833 1.34046 11.1056 1.11536 10.9675 0.949392C10.8294 0.783425 10.642 0.690186 10.4466 0.690186H1.607C1.41163 0.690186 1.22426 0.783425 1.08612 0.949392C0.947971 1.11536 0.870361 1.34046 0.870361 1.57517V10.425C0.870361 10.6597 0.947971 10.8848 1.08612 11.0508C1.22426 11.2168 1.41163 11.31 1.607 11.31H10.4466C10.642 11.31 10.8294 11.2168 10.9675 11.0508C11.1056 10.8848 11.1833 10.6597 11.1833 10.425V7.32758L13.4686 9.29759C13.7279 9.52106 14.1298 9.33689 14.1298 8.99462V3.00558C14.1298 2.66331 13.7279 2.47914 13.4686 2.70261L11.1833 4.67262Z" fill="white"/>
</svg>
